<svg width="512" height="512" viewBox="0 0 512 512" fill="none" xmlns="http://www.w3.org/2000/svg">
  <defs>
    <linearGradient id="bg" x1="68" y1="52" x2="444" y2="460" gradientUnits="userSpaceOnUse">
      <stop stop-color="#F97316" />
      <stop offset="1" stop-color="#B91C1C" />
    </linearGradient>
    <linearGradient id="ember" x1="256" y1="132" x2="256" y2="390" gradientUnits="userSpaceOnUse">
      <stop stop-color="#FFF8E1" />
      <stop offset="1" stop-color="#FFE082" />
    </linearGradient>
  </defs>

  <rect x="24" y="24" width="464" height="464" rx="112" fill="#0D1117" />
  <rect x="38" y="38" width="436" height="436" rx="98" fill="url(#bg)" />

  <path d="M256 112C286 166 344 204 344 286C344 355 304 404 256 404C208 404 168 355 168 286C168 222 204 185 228 154C238 141 247 127 256 112Z" fill="#1F2937" fill-opacity="0.3" />
  <path d="M256 132C281 178 328 210 328 281C328 340 294 384 256 384C218 384 184 340 184 281C184 225 214 192 236 164C244 154 251 143 256 132Z" fill="url(#ember)" />
  <path d="M256 206C272 235 300 254 300 300C300 338 278 366 256 366C234 366 212 338 212 300C212 264 230 243 244 227C249 221 253 213 256 206Z" fill="#FF6F00" />
</svg>
